# xmcd
#
# Track frame offsets: 
#        150
#        14300
#        31485
#        58525
#
# Disc length: 1191 seconds
#
# Revision: 0
# Processed by: cddbd v1.5.2PL0 Copyright (c) Steve Scherf et al.
# Submitted via: ExactAudioCopy v0.95b4
#
DISCID=2904a504
DTITLE=Future Breeze - Heaven above
DYEAR=2002
DGENRE=
TTITLE0=short cut
TTITLE1=krif P vs. Future Breeze Club Radio Mix
TTITLE2=Rave Mix
TTITLE3=krif P vs. Future Breeze Club Remix
EXTD=
EXTT0=
EXTT1=
EXTT2=
EXTT3=
PLAYORDER=
